# Blender 3.4.0
# www.blender.org
mtllib icons.mtl
o cube001
v 0.608961 0.608961 -1.000000
v 0.608961 -0.608961 -1.000000
v 0.608961 0.608961 1.000000
v 0.608961 -0.608961 1.000000
v -0.608961 0.608961 -1.000000
v -0.608961 -0.608961 -1.000000
v -0.608961 0.608961 1.000000
v -0.608961 -0.608961 1.000000
v -0.315711 -0.315711 0.473566
v -0.315711 0.315711 0.473566
v -0.315711 -0.315711 -0.473566
v -0.315711 0.315711 -0.473566
v 0.315711 -0.315711 0.473566
v 0.315711 0.315711 0.473566
v 0.315711 -0.315711 -0.473566
v 0.315711 0.315711 -0.473566
v 1.000000 -1.000000 -1.000000
v -1.000000 -1.000000 -1.000000
v 1.000000 1.000000 -1.000000
v -1.000000 -1.000000 1.000000
v -1.000000 1.000000 1.000000
v 1.000000 1.000000 1.000000
v 1.000000 -1.000000 1.000000
v -1.000000 1.000000 -1.000000
v -0.945585 -1.010000 0.945585
v -0.945585 -0.945585 1.010000
v -1.009999 -0.945585 0.945585
v -0.945585 -1.010000 1.010000
v -1.009999 -1.010000 1.010000
v -1.009999 -0.945585 1.010000
v -1.009999 -1.010000 0.945585
v -0.945585 0.945585 1.009999
v -0.945585 1.010000 0.945585
v -1.009999 0.945585 0.945585
v -0.945585 1.010000 1.009999
v -1.009999 1.010000 1.009999
v -1.009999 1.010000 0.945585
v -1.009999 0.945585 1.009999
v -0.945585 -1.010000 -0.945585
v -1.010000 -0.945585 -0.945585
v -0.945585 -0.945585 -1.009999
v -1.010000 -1.010000 -0.945585
v -1.010000 -1.010000 -1.009999
v -1.010000 -0.945585 -1.009999
v -0.945585 -1.010000 -1.009999
v -0.945585 1.010000 -0.945585
v -0.945585 0.945585 -1.009999
v -1.010000 0.945585 -0.945585
v -0.945585 1.010000 -1.009999
v -1.010000 1.010000 -1.009999
v -1.010000 0.945585 -1.009999
v -1.010000 1.010000 -0.945585
v 0.945585 -1.010000 0.945585
v 1.010000 -0.945585 0.945585
v 0.945585 -0.945585 1.009999
v 1.010000 -1.010000 0.945585
v 1.010000 -1.010000 1.009999
v 1.010000 -0.945585 1.009999
v 0.945585 -1.010000 1.009999
v 0.945585 1.010000 0.945585
v 0.945585 0.945585 1.009999
v 1.010000 0.945585 0.945585
v 0.945585 1.010000 1.009999
v 1.010000 1.010000 1.009999
v 1.010000 0.945585 1.009999
v 1.010000 1.010000 0.945585
v 0.945585 -1.010000 -0.945585
v 0.945585 -0.945585 -1.010000
v 1.009999 -0.945585 -0.945585
v 0.945585 -1.010000 -1.010000
v 1.009999 -1.010000 -1.010000
v 1.009999 -0.945585 -1.010000
v 1.009999 -1.010000 -0.945585
v 0.945585 1.010000 -0.945585
v 1.009999 0.945585 -0.945585
v 0.945585 0.945585 -1.010000
v 1.009999 1.010000 -0.945585
v 1.009999 1.010000 -1.010000
v 1.009999 0.945585 -1.010000
v 0.945585 1.010000 -1.010000
v 0.601890 0.601890 0.950000
v 0.658961 0.658961 1.010000
v 0.605946 -0.605946 -1.009045
v 0.658961 -0.658961 -1.010000
v 0.601890 -0.601890 -0.950000
v 0.605946 0.605946 -1.009045
v 0.658961 0.658961 -1.010000
v 0.601890 0.601890 -0.950000
v 0.605946 0.605946 1.009045
v 0.601890 -0.601890 0.950000
v 0.658961 -0.658961 1.010000
v 0.605946 -0.605946 1.009045
v -0.658961 0.658961 -1.010000
v -0.601890 0.601890 -0.950000
v -0.605946 0.605946 -1.009045
v -0.658961 -0.658961 -1.010000
v -0.601890 -0.601890 -0.950000
v -0.605946 -0.605946 -1.009045
v -0.601890 0.601890 0.950000
v -0.658961 0.658961 1.010000
v -0.605946 0.605946 1.009045
v -0.658961 -0.658961 1.010000
v -0.601890 -0.601890 0.950000
v -0.605946 -0.605946 1.009045
v -0.315711 -0.315711 0.473566
v -0.315711 0.315711 0.473566
v -0.315711 -0.315711 -0.473566
v -0.315711 0.315711 -0.473566
v 0.315711 -0.315711 0.473566
v 0.315711 0.315711 0.473566
v 0.315711 -0.315711 -0.473566
v 0.315711 0.315711 -0.473566
v -0.945585 -1.010000 0.945585
v -0.945585 -0.945585 1.010000
v -1.009999 -0.945585 0.945585
v -0.945585 -1.010000 1.010000
v -1.009999 -1.010000 1.010000
v -1.009999 -0.945585 1.010000
v -1.009999 -1.010000 0.945585
v -0.945585 0.945585 1.009999
v -0.945585 1.010000 0.945585
v -1.009999 0.945585 0.945585
v -0.945585 1.010000 1.009999
v -1.009999 1.010000 1.009999
v -1.009999 1.010000 0.945585
v -1.009999 0.945585 1.009999
v -0.945585 -1.010000 -0.945585
v -1.010000 -0.945585 -0.945585
v -0.945585 -0.945585 -1.009999
v -1.010000 -1.010000 -0.945585
v -1.010000 -1.010000 -1.009999
v -1.010000 -0.945585 -1.009999
v -0.945585 -1.010000 -1.009999
v -0.945585 1.010000 -0.945585
v -0.945585 0.945585 -1.009999
v -1.010000 0.945585 -0.945585
v -0.945585 1.010000 -1.009999
v -1.010000 1.010000 -1.009999
v -1.010000 0.945585 -1.009999
v -1.010000 1.010000 -0.945585
v 0.945585 -1.010000 0.945585
v 1.010000 -0.945585 0.945585
v 0.945585 -0.945585 1.009999
v 1.010000 -1.010000 0.945585
v 1.010000 -1.010000 1.009999
v 1.010000 -0.945585 1.009999
v 0.945585 -1.010000 1.009999
v 0.945585 1.010000 0.945585
v 0.945585 0.945585 1.009999
v 1.010000 0.945585 0.945585
v 0.945585 1.010000 1.009999
v 1.010000 1.010000 1.009999
v 1.010000 0.945585 1.009999
v 1.010000 1.010000 0.945585
v 0.945585 -1.010000 -0.945585
v 0.945585 -0.945585 -1.010000
v 1.009999 -0.945585 -0.945585
v 0.945585 -1.010000 -1.010000
v 1.009999 -1.010000 -1.010000
v 1.009999 -0.945585 -1.010000
v 1.009999 -1.010000 -0.945585
v 0.945585 1.010000 -0.945585
v 1.009999 0.945585 -0.945585
v 0.945585 0.945585 -1.010000
v 1.009999 1.010000 -0.945585
v 1.009999 1.010000 -1.010000
v 1.009999 0.945585 -1.010000
v 0.945585 1.010000 -1.010000
v -0.268368 0.318868 0.427802
v -0.318868 -0.268368 0.478302
v -0.318868 -0.318868 0.427802
v -0.318868 -0.318868 0.478302
v -0.268368 -0.318868 0.478302
v -0.318868 -0.268368 0.427802
v -0.268368 -0.318868 0.427802
v -0.268368 -0.268368 0.478302
v -0.268368 0.268368 0.478302
v -0.318868 0.268368 0.427802
v -0.268368 0.318868 0.478302
v -0.318868 0.318868 0.478302
v -0.318868 0.268368 0.478302
v -0.318868 0.318868 0.427802
v -0.268368 -0.268368 -0.478302
v -0.318868 -0.268368 -0.427802
v -0.268368 -0.318868 -0.427802
v -0.318868 -0.268368 -0.478302
v -0.318868 -0.318868 -0.478302
v -0.318868 -0.318868 -0.427802
v -0.268368 -0.318868 -0.478302
v -0.268368 0.318868 -0.427802
v -0.318868 0.268368 -0.427802
v -0.268368 0.268368 -0.478302
v -0.318868 0.318868 -0.427802
v -0.318868 0.318868 -0.478302
v -0.318868 0.268368 -0.478302
v -0.268368 0.318868 -0.478302
v 0.318868 -0.268368 0.427802
v 0.268368 -0.318868 0.427802
v 0.268368 -0.268368 0.478302
v 0.318868 -0.318868 0.427802
v 0.318868 -0.318868 0.478302
v 0.268368 -0.318868 0.478302
v 0.318868 -0.268368 0.478302
v 0.268368 0.318868 0.427802
v 0.318868 0.268368 0.427802
v 0.268368 0.268368 0.478302
v 0.318868 0.318868 0.427802
v 0.318868 0.318868 0.478302
v 0.318868 0.268368 0.478302
v 0.268368 0.318868 0.478302
v 0.318868 -0.268368 -0.427802
v 0.268368 -0.268368 -0.478302
v 0.268368 -0.318868 -0.427802
v 0.318868 -0.268368 -0.478302
v 0.318868 -0.318868 -0.478302
v 0.268368 -0.318868 -0.478302
v 0.318868 -0.318868 -0.427802
v 0.268368 0.318868 -0.427802
v 0.268368 0.268368 -0.478302
v 0.318868 0.268368 -0.427802
v 0.268368 0.318868 -0.478302
v 0.318868 0.318868 -0.478302
v 0.318868 0.268368 -0.478302
v 0.318868 0.318868 -0.427802
vn -0.0000 1.0000 -0.0000
vn -0.0000 -1.0000 -0.0000
vn -1.0000 -0.0000 -0.0000
vn 1.0000 -0.0000 -0.0000
vn -0.0000 -0.0000 1.0000
vn -0.0000 -0.0000 -1.0000
vn -0.0000 0.0180 -0.9998
vn -0.0000 0.9976 -0.0685
vn -0.0180 -0.0000 -0.9998
vn -0.9976 -0.0000 -0.0685
vn 0.9976 -0.0000 0.0685
vn 0.0180 -0.0000 0.9998
vn -0.9976 -0.0000 0.0685
vn -0.0180 -0.0000 0.9998
vn 0.9976 -0.0000 -0.0685
vn 0.0180 -0.0000 -0.9998
vn -0.0000 -0.0180 0.9998
vn -0.0000 -0.9976 0.0685
vn -0.0000 0.0180 0.9998
vn -0.0000 0.9976 0.0685
vn -0.0000 -0.0180 -0.9998
vn -0.0000 -0.9976 -0.0685
vt 0.603059 0.478059
vt 0.396941 0.478059
vt 0.603059 0.771941
vt 0.396941 0.771941
vt 0.603059 0.271941
vt 0.396941 0.271941
vt 0.603059 0.978059
vt 0.396941 0.978059
vt 0.375000 1.000000
vt 0.125000 0.750000
vt 0.375000 0.000000
vt 0.625000 1.000000
vt 0.875000 0.750000
vt 0.625000 0.000000
vt 0.125000 0.500000
vt 0.375000 0.250000
vt 0.875000 0.500000
vt 0.625000 0.250000
vt 0.375000 0.750000
vt 0.625000 0.750000
vt 0.375000 0.500000
vt 0.625000 0.500000
vt 0.375000 0.500000
vt 0.125000 0.500000
vt 0.375000 0.250000
vt 0.625000 0.500000
vt 0.375000 0.000000
vt 0.125000 0.750000
vt 0.375000 1.000000
vt 0.875000 0.750000
vt 0.625000 0.000000
vt 0.625000 1.000000
vt 0.625000 0.750000
vt 0.375000 0.750000
vt 0.875000 0.500000
vt 0.625000 0.250000
vt 0.132972 0.742028
vt 0.382972 0.992028
vt 0.382972 0.007972
vt 0.132972 0.750000
vt 0.375000 0.992028
vt 0.125000 0.750000
vt 0.375000 1.000000
vt 0.375000 0.000000
vt 0.382972 1.000000
vt 0.382972 0.000000
vt 0.125000 0.742028
vt 0.375000 0.007972
vt 0.617028 0.992028
vt 0.867028 0.742028
vt 0.617028 0.007972
vt 0.867028 0.750000
vt 0.625000 0.992028
vt 0.625000 1.000000
vt 0.875000 0.750000
vt 0.625000 0.000000
vt 0.875000 0.742028
vt 0.625000 0.007972
vt 0.617028 1.000000
vt 0.617028 0.000000
vt 0.132972 0.507972
vt 0.382972 0.242028
vt 0.382972 0.257972
vt 0.125000 0.507972
vt 0.375000 0.242028
vt 0.125000 0.500000
vt 0.375000 0.250000
vt 0.382972 0.250000
vt 0.132972 0.500000
vt 0.375000 0.257972
vt 0.867028 0.507972
vt 0.617028 0.257972
vt 0.617028 0.242028
vt 0.867028 0.500000
vt 0.625000 0.257972
vt 0.875000 0.500000
vt 0.625000 0.250000
vt 0.617028 0.250000
vt 0.875000 0.507972
vt 0.625000 0.242028
vt 0.367028 0.742028
vt 0.382972 0.742028
vt 0.382972 0.757972
vt 0.375000 0.742028
vt 0.375000 0.750000
vt 0.382972 0.750000
vt 0.367028 0.750000
vt 0.375000 0.757972
vt 0.632972 0.742028
vt 0.617028 0.757972
vt 0.617028 0.742028
vt 0.632972 0.750000
vt 0.625000 0.757972
vt 0.625000 0.750000
vt 0.617028 0.750000
vt 0.625000 0.742028
vt 0.367028 0.507972
vt 0.382972 0.492028
vt 0.382972 0.507972
vt 0.367028 0.500000
vt 0.375000 0.492028
vt 0.375000 0.500000
vt 0.382972 0.500000
vt 0.375000 0.507972
vt 0.632972 0.507972
vt 0.617028 0.507972
vt 0.617028 0.492028
vt 0.625000 0.507972
vt 0.625000 0.500000
vt 0.617028 0.500000
vt 0.632972 0.500000
vt 0.625000 0.492028
vt 0.603059 0.764594
vt 0.605864 0.769136
vt 0.396941 0.478059
vt 0.394136 0.480864
vt 0.396941 0.485406
vt 0.603059 0.478059
vt 0.605864 0.480864
vt 0.603059 0.485406
vt 0.603059 0.771941
vt 0.396941 0.764594
vt 0.394136 0.769136
vt 0.396941 0.771941
vt 0.605864 0.269136
vt 0.603059 0.289594
vt 0.603059 0.271941
vt 0.394136 0.269136
vt 0.396941 0.289594
vt 0.396941 0.271941
vt 0.603059 0.960406
vt 0.605864 0.980864
vt 0.603059 0.978059
vt 0.394136 0.980864
vt 0.396941 0.960406
vt 0.396941 0.978059
vt 0.375000 1.000000
vt 0.125000 0.750000
vt 0.375000 0.000000
vt 0.625000 1.000000
vt 0.875000 0.750000
vt 0.625000 0.000000
vt 0.125000 0.500000
vt 0.375000 0.250000
vt 0.875000 0.500000
vt 0.625000 0.250000
vt 0.375000 0.750000
vt 0.625000 0.750000
vt 0.375000 0.500000
vt 0.625000 0.500000
vt 0.132972 0.742028
vt 0.382972 0.992028
vt 0.382972 0.007972
vt 0.132972 0.750000
vt 0.375000 0.992028
vt 0.125000 0.750000
vt 0.375000 1.000000
vt 0.375000 0.000000
vt 0.382972 1.000000
vt 0.382972 0.000000
vt 0.125000 0.742028
vt 0.375000 0.007972
vt 0.617028 0.992028
vt 0.867028 0.742028
vt 0.617028 0.007972
vt 0.867028 0.750000
vt 0.625000 0.992028
vt 0.625000 1.000000
vt 0.875000 0.750000
vt 0.625000 0.000000
vt 0.875000 0.742028
vt 0.625000 0.007972
vt 0.617028 1.000000
vt 0.617028 0.000000
vt 0.132972 0.507972
vt 0.382972 0.242028
vt 0.382972 0.257972
vt 0.125000 0.507972
vt 0.375000 0.242028
vt 0.125000 0.500000
vt 0.375000 0.250000
vt 0.382972 0.250000
vt 0.132972 0.500000
vt 0.375000 0.257972
vt 0.867028 0.507972
vt 0.617028 0.257972
vt 0.617028 0.242028
vt 0.867028 0.500000
vt 0.625000 0.257972
vt 0.875000 0.500000
vt 0.625000 0.250000
vt 0.617028 0.250000
vt 0.875000 0.507972
vt 0.625000 0.242028
vt 0.367028 0.742028
vt 0.382972 0.742028
vt 0.382972 0.757972
vt 0.375000 0.742028
vt 0.375000 0.750000
vt 0.382972 0.750000
vt 0.367028 0.750000
vt 0.375000 0.757972
vt 0.632972 0.742028
vt 0.617028 0.757972
vt 0.617028 0.742028
vt 0.632972 0.750000
vt 0.625000 0.757972
vt 0.625000 0.750000
vt 0.617028 0.750000
vt 0.625000 0.742028
vt 0.367028 0.507972
vt 0.382972 0.492028
vt 0.382972 0.507972
vt 0.367028 0.500000
vt 0.375000 0.492028
vt 0.375000 0.500000
vt 0.382972 0.500000
vt 0.375000 0.507972
vt 0.632972 0.507972
vt 0.617028 0.507972
vt 0.617028 0.492028
vt 0.625000 0.507972
vt 0.625000 0.500000
vt 0.617028 0.500000
vt 0.632972 0.500000
vt 0.625000 0.492028
vt 0.855203 0.736802
vt 0.394797 0.000000
vt 0.394797 1.000000
vt 0.375000 0.013198
vt 0.125000 0.736802
vt 0.375000 1.000000
vt 0.125000 0.750000
vt 0.375000 0.000000
vt 0.375000 0.980203
vt 0.144797 0.750000
vt 0.394797 0.013198
vt 0.144797 0.736802
vt 0.394797 0.980203
vt 0.605203 0.980203
vt 0.605203 0.013198
vt 0.625000 0.980203
vt 0.855203 0.750000
vt 0.875000 0.750000
vt 0.625000 1.000000
vt 0.625000 0.000000
vt 0.605203 0.000000
vt 0.605203 1.000000
vt 0.625000 0.013198
vt 0.875000 0.736802
vt 0.394797 0.269797
vt 0.394797 0.236802
vt 0.144797 0.513198
vt 0.394797 0.250000
vt 0.375000 0.250000
vt 0.125000 0.500000
vt 0.375000 0.236802
vt 0.125000 0.513198
vt 0.375000 0.269797
vt 0.144797 0.500000
vt 0.855203 0.513198
vt 0.605203 0.236802
vt 0.605203 0.269797
vt 0.625000 0.236802
vt 0.875000 0.513198
vt 0.875000 0.500000
vt 0.625000 0.250000
vt 0.605203 0.250000
vt 0.625000 0.269797
vt 0.855203 0.500000
vt 0.394797 0.736802
vt 0.355203 0.736802
vt 0.394797 0.769797
vt 0.375000 0.736802
vt 0.375000 0.750000
vt 0.375000 0.769797
vt 0.355203 0.750000
vt 0.394797 0.750000
vt 0.644797 0.736802
vt 0.605203 0.736802
vt 0.605203 0.769797
vt 0.625000 0.736802
vt 0.625000 0.750000
vt 0.605203 0.750000
vt 0.625000 0.769797
vt 0.644797 0.750000
vt 0.394797 0.513198
vt 0.394797 0.480203
vt 0.355203 0.513198
vt 0.394797 0.500000
vt 0.375000 0.500000
vt 0.375000 0.480203
vt 0.355203 0.500000
vt 0.375000 0.513198
vt 0.644797 0.513198
vt 0.605203 0.480203
vt 0.605203 0.513198
vt 0.625000 0.480203
vt 0.644797 0.500000
vt 0.625000 0.500000
vt 0.605203 0.500000
vt 0.625000 0.513198
s 0
usemtl color1
f 19/26/1 24/35/1 21/30/1 22/33/1
f 3/3/2 7/7/2 5/5/2 1/1/2
f 20/27/3 21/31/3 24/36/3 18/25/3
f 18/24/2 17/23/2 23/34/2 20/28/2
f 17/23/4 19/26/4 22/33/4 23/34/4
f 8/8/4 6/6/4 5/5/4 7/7/4
f 2/2/6 17/23/6 18/25/6 6/6/6
f 1/1/6 19/26/6 17/23/6 2/2/6
f 7/7/5 21/32/5 20/29/5 8/8/5
f 4/4/5 23/34/5 22/33/5 3/3/5
f 6/6/6 18/25/6 24/36/6 5/5/6
f 3/3/5 22/33/5 21/32/5 7/7/5
f 8/8/5 20/29/5 23/34/5 4/4/5
f 5/5/6 24/36/6 19/26/6 1/1/6
f 2/2/3 4/4/3 3/3/3 1/1/3
f 2/2/1 6/6/1 8/8/1 4/4/1
usemtl color2
f 15/21/4 16/22/4 14/20/4 13/19/4
f 13/19/5 14/20/5 10/12/5 9/9/5
f 16/22/1 12/17/1 10/13/1 14/20/1
f 11/15/2 15/21/2 13/19/2 9/10/2
f 11/16/6 12/18/6 16/22/6 15/21/6
f 9/11/3 10/14/3 12/18/3 11/16/3
f 111/149/3 109/147/3 110/148/3 112/150/3
f 109/147/6 105/137/6 106/140/6 110/148/6
f 112/150/2 110/148/2 106/141/2 108/145/2
f 107/143/1 105/138/1 109/147/1 111/149/1
f 107/144/5 111/149/5 112/150/5 108/146/5
f 105/139/4 107/144/4 108/146/4 106/142/4
usemtl blacks
f 25/37/2 28/40/2 29/42/2 31/47/2
f 26/38/5 30/45/5 29/43/5 28/41/5
f 27/39/3 31/48/3 29/44/3 30/46/3
f 32/49/5 35/53/5 36/54/5 38/59/5
f 33/50/1 37/57/1 36/55/1 35/52/1
f 34/51/3 38/60/3 36/56/3 37/58/3
f 39/61/2 42/64/2 43/66/2 45/69/2
f 40/62/3 44/68/3 43/67/3 42/65/3
f 41/63/6 45/70/6 43/67/6 44/68/6
f 46/71/1 49/74/1 50/76/1 52/79/1
f 47/72/6 51/78/6 50/77/6 49/75/6
f 48/73/3 52/80/3 50/77/3 51/78/3
f 53/81/2 56/84/2 57/85/2 59/87/2
f 54/82/4 58/86/4 57/85/4 56/84/4
f 55/83/5 59/88/5 57/85/5 58/86/5
f 60/89/1 63/92/1 64/94/1 66/96/1
f 61/90/5 65/95/5 64/94/5 63/93/5
f 62/91/4 66/96/4 64/94/4 65/95/4
f 67/97/2 70/100/2 71/102/2 73/104/2
f 68/98/6 72/103/6 71/102/6 70/101/6
f 69/99/4 73/104/4 71/102/4 72/103/4
f 74/105/1 77/108/1 78/109/1 80/111/1
f 75/106/4 79/110/4 78/109/4 77/108/4
f 76/107/6 80/112/6 78/109/6 79/110/6
f 39/61/2 25/37/2 31/47/2 42/64/2
f 42/65/3 31/48/3 27/39/3 40/62/3
f 26/38/5 32/49/5 38/59/5 30/45/5
f 30/46/3 38/60/3 34/51/3 27/39/3
f 33/50/1 46/71/1 52/79/1 37/57/1
f 37/58/3 52/80/3 48/73/3 34/51/3
f 47/72/6 41/63/6 44/68/6 51/78/6
f 51/78/3 44/68/3 40/62/3 48/73/3
f 67/97/2 39/61/2 45/69/2 70/100/2
f 70/101/6 45/70/6 41/63/6 68/98/6
f 46/71/1 74/105/1 80/111/1 49/74/1
f 49/75/6 80/112/6 76/107/6 47/72/6
f 75/106/4 69/99/4 72/103/4 79/110/4
f 79/110/6 72/103/6 68/98/6 76/107/6
f 53/81/2 67/97/2 73/104/2 56/84/2
f 56/84/4 73/104/4 69/99/4 54/82/4
f 74/105/1 60/89/1 66/96/1 77/108/1
f 77/108/4 66/96/4 62/91/4 75/106/4
f 61/90/5 55/83/5 58/86/5 65/95/5
f 65/95/4 58/86/4 54/82/4 62/91/4
f 25/37/2 53/81/2 59/87/2 28/40/2
f 28/41/5 59/88/5 55/83/5 26/38/5
f 60/89/1 33/50/1 35/52/1 63/92/1
f 63/93/5 35/53/5 32/49/5 61/90/5
f 84/116/7 96/128/7 98/130/7 83/115/7
f 83/115/8 98/130/8 97/129/8 85/117/8
f 87/119/9 84/116/9 83/115/9 86/118/9
f 86/118/10 83/115/10 85/117/10 88/120/10
f 103/135/11 99/131/11 101/133/11 104/136/11
f 104/136/12 101/133/12 100/132/12 102/134/12
f 81/113/13 90/122/13 92/124/13 89/121/13
f 89/121/14 92/124/14 91/123/14 82/114/14
f 94/126/15 97/129/15 98/130/15 95/127/15
f 95/127/16 98/130/16 96/128/16 93/125/16
f 82/114/17 100/132/17 101/133/17 89/121/17
f 89/121/18 101/133/18 99/131/18 81/113/18
f 102/134/19 91/123/19 92/124/19 104/136/19
f 104/136/20 92/124/20 90/122/20 103/135/20
f 93/125/21 87/119/21 86/118/21 95/127/21
f 95/127/22 86/118/22 88/120/22 94/126/22
f 113/151/1 119/161/1 117/156/1 116/154/1
f 114/152/6 116/155/6 117/157/6 118/159/6
f 115/153/4 118/160/4 117/158/4 119/162/4
f 120/163/6 126/173/6 124/168/6 123/167/6
f 121/164/2 123/166/2 124/169/2 125/171/2
f 122/165/4 125/172/4 124/170/4 126/174/4
f 127/175/1 133/183/1 131/180/1 130/178/1
f 128/176/4 130/179/4 131/181/4 132/182/4
f 129/177/5 132/182/5 131/181/5 133/184/5
f 134/185/2 140/193/2 138/190/2 137/188/2
f 135/186/5 137/189/5 138/191/5 139/192/5
f 136/187/4 139/192/4 138/191/4 140/194/4
f 141/195/1 147/201/1 145/199/1 144/198/1
f 142/196/3 144/198/3 145/199/3 146/200/3
f 143/197/6 146/200/6 145/199/6 147/202/6
f 148/203/2 154/210/2 152/208/2 151/206/2
f 149/204/6 151/207/6 152/208/6 153/209/6
f 150/205/3 153/209/3 152/208/3 154/210/3
f 155/211/1 161/218/1 159/216/1 158/214/1
f 156/212/5 158/215/5 159/216/5 160/217/5
f 157/213/3 160/217/3 159/216/3 161/218/3
f 162/219/2 168/225/2 166/223/2 165/222/2
f 163/220/3 165/222/3 166/223/3 167/224/3
f 164/221/5 167/224/5 166/223/5 168/226/5
f 127/175/1 130/178/1 119/161/1 113/151/1
f 130/179/4 128/176/4 115/153/4 119/162/4
f 114/152/6 118/159/6 126/173/6 120/163/6
f 118/160/4 115/153/4 122/165/4 126/174/4
f 121/164/2 125/171/2 140/193/2 134/185/2
f 125/172/4 122/165/4 136/187/4 140/194/4
f 135/186/5 139/192/5 132/182/5 129/177/5
f 139/192/4 136/187/4 128/176/4 132/182/4
f 155/211/1 158/214/1 133/183/1 127/175/1
f 158/215/5 156/212/5 129/177/5 133/184/5
f 134/185/2 137/188/2 168/225/2 162/219/2
f 137/189/5 135/186/5 164/221/5 168/226/5
f 163/220/3 167/224/3 160/217/3 157/213/3
f 167/224/5 164/221/5 156/212/5 160/217/5
f 141/195/1 144/198/1 161/218/1 155/211/1
f 144/198/3 142/196/3 157/213/3 161/218/3
f 162/219/2 165/222/2 154/210/2 148/203/2
f 165/222/3 163/220/3 150/205/3 154/210/3
f 149/204/6 153/209/6 146/200/6 143/197/6
f 153/209/3 150/205/3 142/196/3 146/200/3
f 113/151/1 116/154/1 147/201/1 141/195/1
f 116/155/6 114/152/6 143/197/6 147/202/6
f 148/203/2 151/206/2 123/166/2 121/164/2
f 151/207/6 149/204/6 120/163/6 123/167/6
f 176/239/6 173/235/6 172/232/6 170/229/6
f 175/238/1 171/231/1 172/233/1 173/236/1
f 174/237/4 170/228/4 172/234/4 171/230/4
f 169/227/2 179/243/2 180/244/2 182/250/2
f 177/240/6 181/248/6 180/245/6 179/242/6
f 178/241/4 182/249/4 180/246/4 181/247/4
f 183/251/5 186/254/5 187/255/5 189/259/5
f 184/252/4 188/257/4 187/255/4 186/254/4
f 185/253/1 189/260/1 187/256/1 188/258/1
f 190/261/2 193/265/2 194/266/2 196/270/2
f 191/262/4 195/268/4 194/267/4 193/264/4
f 192/263/5 196/269/5 194/267/5 195/268/5
f 197/271/3 200/274/3 201/275/3 203/278/3
f 198/272/1 202/277/1 201/275/1 200/274/1
f 199/273/6 203/278/6 201/275/6 202/276/6
f 204/279/2 207/282/2 208/283/2 210/286/2
f 205/280/3 209/284/3 208/283/3 207/282/3
f 206/281/6 210/285/6 208/283/6 209/284/6
f 211/287/3 214/290/3 215/291/3 217/294/3
f 212/288/5 216/292/5 215/291/5 214/290/5
f 213/289/1 217/294/1 215/291/1 216/293/1
f 218/295/2 221/299/2 222/300/2 224/302/2
f 219/296/5 223/301/5 222/300/5 221/298/5
f 220/297/3 224/302/3 222/300/3 223/301/3
f 197/271/3 211/287/3 217/294/3 200/274/3
f 200/274/1 217/294/1 213/289/1 198/272/1
f 192/263/5 219/296/5 221/298/5 196/269/5
f 196/270/2 221/299/2 218/295/2 190/261/2
f 176/239/6 199/273/6 202/276/6 173/235/6
f 173/236/1 202/277/1 198/272/1 175/238/1
f 206/281/6 177/240/6 179/242/6 210/285/6
f 210/286/2 179/243/2 169/227/2 204/279/2
f 191/262/4 184/252/4 186/254/4 195/268/4
f 195/268/5 186/254/5 183/251/5 192/263/5
f 205/280/3 197/271/3 203/278/3 209/284/3
f 209/284/6 203/278/6 199/273/6 206/281/6
f 184/252/4 174/237/4 171/230/4 188/257/4
f 188/258/1 171/231/1 175/238/1 185/253/1
f 174/237/4 178/241/4 181/247/4 170/228/4
f 170/229/6 181/248/6 177/240/6 176/239/6
f 212/288/5 183/251/5 189/259/5 216/292/5
f 216/293/1 189/260/1 185/253/1 213/289/1
f 219/296/5 212/288/5 214/290/5 223/301/5
f 223/301/3 214/290/3 211/287/3 220/297/3
f 178/241/4 191/262/4 193/264/4 182/249/4
f 182/250/2 193/265/2 190/261/2 169/227/2
f 220/297/3 205/280/3 207/282/3 224/302/3
f 224/302/2 207/282/2 204/279/2 218/295/2
