# Blender 3.4.0
# www.blender.org
mtllib icons.mtl
o cube000default
v -0.679210 -0.336809 -1.003192
v -0.622012 -0.279611 -1.003192
v -0.617595 -0.079728 -1.003192
v 0.656962 -0.336435 -1.003192
v -0.674793 -0.022530 -1.003192
v 0.599764 -0.279237 -1.003192
v 0.600852 -0.079728 -1.003192
v 0.658051 -0.022530 -1.003192
v 0.206100 0.135754 -1.003192
v 0.263299 0.192952 -1.003192
v 0.263299 0.593873 -1.003192
v 0.721417 0.135754 -1.003192
v 0.206100 0.651071 -1.003192
v 0.664219 0.192952 -1.003192
v 0.664219 0.593873 -1.003192
v 0.721417 0.651071 -1.003192
v -0.721005 0.135754 -1.003192
v -0.663806 0.192952 -1.003192
v -0.663806 0.593873 -1.003192
v -0.205688 0.135754 -1.003192
v -0.721005 0.651071 -1.003192
v -0.262886 0.192952 -1.003192
v -0.262886 0.593873 -1.003192
v -0.205688 0.651071 -1.003192
v 0.826997 -0.826996 -0.826997
v 0.826997 -0.826997 0.826997
v 0.826997 0.826996 0.826997
v 0.826997 0.826997 -0.826996
v 0.826997 -0.826997 0.826997
v -0.826997 -0.826997 0.826997
v -0.826997 0.826996 0.826997
v 0.826997 0.826996 0.826997
v -0.826997 -0.826997 0.826997
v -0.826997 -0.826996 -0.826997
v -0.826997 0.826997 -0.826996
v -0.826997 0.826996 0.826997
v -0.826997 -0.826996 -0.826997
v 0.826997 -0.826996 -0.826997
v 0.826997 0.826997 -0.826996
v -0.826997 0.826997 -0.826996
v 0.826997 -0.826997 0.826997
v 0.826997 -0.826996 -0.826997
v -0.826997 -0.826996 -0.826997
v -0.826997 -0.826997 0.826997
v -0.826997 0.826996 0.826997
v -0.826997 0.826997 -0.826996
v 0.826997 0.826997 -0.826996
v 0.826997 0.826996 0.826997
v 0.656773 -0.336809 1.003743
v 0.599574 -0.279611 1.003743
v 0.595158 -0.079728 1.003743
v -0.679400 -0.336435 1.003742
v 0.652356 -0.022530 1.003743
v -0.622202 -0.279237 1.003743
v -0.623290 -0.079728 1.003742
v -0.680488 -0.022530 1.003742
v -0.206100 0.135754 1.003695
v -0.263299 0.192952 1.003695
v -0.263299 0.593873 1.003695
v -0.721417 0.135754 1.003695
v -0.206100 0.651071 1.003695
v -0.664219 0.192952 1.003695
v -0.664219 0.593873 1.003695
v -0.721417 0.651071 1.003695
v 0.721005 0.135754 1.003695
v 0.663806 0.192952 1.003695
v 0.663806 0.593873 1.003695
v 0.205688 0.135754 1.003695
v 0.721005 0.651071 1.003695
v 0.262886 0.192952 1.003695
v 0.262886 0.593873 1.003695
v 0.205688 0.651071 1.003695
v 1.000000 -1.000000 -1.000000
v 1.000000 -1.000000 1.000000
v 1.000000 1.000000 1.000000
v 1.000000 1.000000 -1.000000
v -1.000000 -1.000000 1.000000
v -1.000000 -1.000000 -1.000000
v -1.000000 1.000000 -1.000000
v -1.000000 1.000000 1.000000
v 1.000000 -1.000000 1.000000
v 1.000000 -1.000000 -1.000000
v -1.000000 -1.000000 -1.000000
v -1.000000 -1.000000 1.000000
v -1.000000 1.000000 1.000000
v -1.000000 1.000000 -1.000000
v 1.000000 1.000000 -1.000000
v 1.000000 1.000000 1.000000
v 0.668537 0.185255 -0.645972
v 0.668537 0.602329 -0.645972
v 0.251463 0.602329 -0.645972
v 0.251463 0.185255 -0.645972
v -0.668622 0.185255 0.645972
v -0.668622 0.602328 0.645972
v -0.251549 0.602328 0.645972
v -0.251549 0.185255 0.645972
v -0.625346 -0.281780 0.645972
v -0.625346 -0.078252 0.645972
v 0.607821 -0.078252 0.645972
v 0.607821 -0.281780 0.645972
v 0.251463 0.185255 0.645972
v 0.251463 0.602328 0.645972
v 0.668537 0.602328 0.645972
v 0.668537 0.185255 0.645972
v -0.251549 0.185255 -0.645972
v -0.251549 0.602329 -0.645972
v -0.668622 0.602329 -0.645972
v -0.668622 0.185255 -0.645972
v 0.607821 -0.281780 -0.645972
v 0.607821 -0.078252 -0.645972
v -0.625346 -0.078252 -0.645972
v -0.625346 -0.281780 -0.645972
v -1.000000 -1.000000 -1.000000
v 1.000000 -1.000000 -1.000000
v -0.625345 -0.281780 -1.000000
v -1.000000 1.000000 -1.000000
v 0.607821 -0.281780 -1.000000
v 1.000000 1.000000 -1.000000
v -0.625345 -0.078252 -1.000000
v 0.607821 -0.078252 -1.000000
v -0.668622 0.185255 -1.000000
v -0.623277 0.185255 -1.000000
v -0.668622 0.602329 -1.000000
v -0.251549 0.602329 -1.000000
v 0.668537 0.185255 -1.000000
v -0.251549 0.185255 -1.000000
v 0.668537 0.602329 -1.000000
v 0.251463 0.185255 -1.000000
v 0.251463 0.602329 -1.000000
v 1.000000 -1.000000 1.000000
v -1.000000 -1.000000 1.000000
v 0.607820 -0.281780 1.000000
v 1.000000 1.000000 1.000000
v -0.625346 -0.281780 1.000000
v -1.000000 1.000000 1.000000
v 0.607820 -0.078252 1.000000
v -0.625346 -0.078252 1.000000
v 0.668537 0.185255 1.000000
v 0.623191 0.185255 1.000000
v 0.668537 0.602328 1.000000
v 0.251463 0.602328 1.000000
v -0.668622 0.185255 1.000000
v 0.251463 0.185255 1.000000
v -0.668622 0.602328 1.000000
v -0.251549 0.185255 1.000000
v -0.251549 0.602328 1.000000
v 0.668537 0.185255 -0.645972
v 0.668537 0.185255 -1.000000
v 0.668537 0.602329 -1.000000
v 0.668537 0.602329 -0.645972
v 0.251463 0.602329 -0.645972
v 0.251463 0.602329 -1.000000
v 0.251463 0.185255 -1.000000
v 0.251463 0.185255 -0.645972
v 0.251463 0.185255 -1.000000
v 0.668537 0.185255 -1.000000
v 0.668537 0.185255 -0.645972
v 0.251463 0.185255 -0.645972
v 0.668537 0.602329 -1.000000
v 0.251463 0.602329 -1.000000
v 0.251463 0.602329 -0.645972
v 0.668537 0.602329 -0.645972
v -0.251549 0.602328 1.000000
v -0.251549 0.185255 1.000000
v -0.251549 0.185255 0.645972
v -0.251549 0.602328 0.645972
v -0.668622 0.185255 1.000000
v -0.668622 0.602328 1.000000
v -0.668622 0.602328 0.645972
v -0.668622 0.185255 0.645972
v -0.251549 0.185255 1.000000
v -0.668622 0.185255 1.000000
v -0.668622 0.185255 0.645972
v -0.251549 0.185255 0.645972
v -0.668622 0.602328 0.645972
v -0.668622 0.602328 1.000000
v -0.251549 0.602328 1.000000
v -0.251549 0.602328 0.645972
v 0.607820 -0.078252 1.000000
v 0.607820 -0.281780 1.000000
v 0.607821 -0.281780 0.645972
v 0.607821 -0.078252 0.645972
v -0.625346 -0.281780 1.000000
v -0.625346 -0.078252 1.000000
v -0.625346 -0.078252 0.645972
v -0.625346 -0.281780 0.645972
v 0.607820 -0.281780 1.000000
v -0.625346 -0.281780 1.000000
v -0.625346 -0.281780 0.645972
v 0.607821 -0.281780 0.645972
v -0.625346 -0.078252 0.645972
v -0.625346 -0.078252 1.000000
v 0.607820 -0.078252 1.000000
v 0.607821 -0.078252 0.645972
v 0.668537 0.602328 1.000000
v 0.668537 0.185255 1.000000
v 0.668537 0.185255 0.645972
v 0.668537 0.602328 0.645972
v 0.251463 0.185255 1.000000
v 0.251463 0.602328 1.000000
v 0.251463 0.602328 0.645972
v 0.251463 0.185255 0.645972
v 0.623191 0.185255 1.000000
v 0.251463 0.185255 1.000000
v 0.251463 0.185255 0.645972
v 0.668537 0.185255 0.645972
v 0.668537 0.185255 1.000000
v 0.251463 0.602328 0.645972
v 0.251463 0.602328 1.000000
v 0.668537 0.602328 1.000000
v 0.668537 0.602328 0.645972
v -0.251549 0.185255 -0.645972
v -0.251549 0.185255 -1.000000
v -0.251549 0.602329 -1.000000
v -0.251549 0.602329 -0.645972
v -0.668622 0.602329 -0.645972
v -0.668622 0.602329 -1.000000
v -0.668622 0.185255 -1.000000
v -0.668622 0.185255 -0.645972
v -0.251549 0.185255 -0.645972
v -0.668622 0.185255 -0.645972
v -0.668622 0.185255 -1.000000
v -0.623277 0.185255 -1.000000
v -0.251549 0.185255 -1.000000
v -0.251549 0.602329 -1.000000
v -0.668622 0.602329 -1.000000
v -0.668622 0.602329 -0.645972
v -0.251549 0.602329 -0.645972
v 0.607821 -0.281780 -0.645972
v 0.607821 -0.281780 -1.000000
v 0.607821 -0.078252 -1.000000
v 0.607821 -0.078252 -0.645972
v -0.625346 -0.078252 -0.645972
v -0.625345 -0.078252 -1.000000
v -0.625345 -0.281780 -1.000000
v -0.625346 -0.281780 -0.645972
v -0.625345 -0.281780 -1.000000
v 0.607821 -0.281780 -1.000000
v 0.607821 -0.281780 -0.645972
v -0.625346 -0.281780 -0.645972
v 0.607821 -0.078252 -1.000000
v -0.625345 -0.078252 -1.000000
v -0.625346 -0.078252 -0.645972
v 0.607821 -0.078252 -0.645972
v -0.945585 -1.010000 0.945585
v -0.945585 -0.945585 1.010000
v -1.009999 -0.945585 0.945585
v -0.945585 -1.010000 1.010000
v -1.009999 -1.010000 1.010000
v -1.009999 -0.945585 1.010000
v -1.009999 -1.010000 0.945585
v -0.945585 0.945585 1.009999
v -0.945585 1.010000 0.945585
v -1.009999 0.945585 0.945585
v -0.945585 1.010000 1.009999
v -1.009999 1.010000 1.009999
v -1.009999 1.010000 0.945585
v -1.009999 0.945585 1.009999
v -0.945585 -1.010000 -0.945585
v -1.010000 -0.945585 -0.945585
v -0.945585 -0.945585 -1.009999
v -1.010000 -1.010000 -0.945585
v -1.010000 -1.010000 -1.009999
v -1.010000 -0.945585 -1.009999
v -0.945585 -1.010000 -1.009999
v -0.945585 1.010000 -0.945585
v -0.945585 0.945585 -1.009999
v -1.010000 0.945585 -0.945585
v -0.945585 1.010000 -1.009999
v -1.010000 1.010000 -1.009999
v -1.010000 0.945585 -1.009999
v -1.010000 1.010000 -0.945585
v 0.945585 -1.010000 0.945585
v 1.010000 -0.945585 0.945585
v 0.945585 -0.945585 1.009999
v 1.010000 -1.010000 0.945585
v 1.010000 -1.010000 1.009999
v 1.010000 -0.945585 1.009999
v 0.945585 -1.010000 1.009999
v 0.945585 1.010000 0.945585
v 0.945585 0.945585 1.009999
v 1.010000 0.945585 0.945585
v 0.945585 1.010000 1.009999
v 1.010000 1.010000 1.009999
v 1.010000 0.945585 1.009999
v 1.010000 1.010000 0.945585
v 0.945585 -1.010000 -0.945585
v 0.945585 -0.945585 -1.010000
v 1.009999 -0.945585 -0.945585
v 0.945585 -1.010000 -1.010000
v 1.009999 -1.010000 -1.010000
v 1.009999 -0.945585 -1.010000
v 1.009999 -1.010000 -0.945585
v 0.945585 1.010000 -0.945585
v 1.009999 0.945585 -0.945585
v 0.945585 0.945585 -1.010000
v 1.009999 1.010000 -0.945585
v 1.009999 1.010000 -1.010000
v 1.009999 0.945585 -1.010000
v 0.945585 1.010000 -1.010000
vn -0.0000 -0.0000 -1.0000
vn 1.0000 -0.0000 -0.0000
vn -0.0000 -0.0000 1.0000
vn -1.0000 -0.0000 -0.0000
vn -0.0000 -1.0000 -0.0000
vn -0.0000 1.0000 -0.0000
vn -0.0000 -0.0000 -0.0000
vt 1.000000 0.000000
vt 1.000000 0.000000
vt 1.000000 1.000000
vt 0.000000 0.000000
vt 1.000000 1.000000
vt 0.000000 0.000000
vt 0.000000 1.000000
vt 0.000000 1.000000
vt 1.000000 0.000000
vt 1.000000 0.000000
vt 1.000000 1.000000
vt 0.000000 0.000000
vt 1.000000 1.000000
vt 0.000000 0.000000
vt 0.000000 1.000000
vt 0.000000 1.000000
vt 1.000000 0.000000
vt 1.000000 0.000000
vt 1.000000 1.000000
vt 0.000000 0.000000
vt 1.000000 1.000000
vt 0.000000 0.000000
vt 0.000000 1.000000
vt 0.000000 1.000000
vt 0.375000 0.000000
vt 0.375000 0.250000
vt 0.625000 0.250000
vt 0.625000 0.000000
vt 0.375000 0.250000
vt 0.375000 0.500000
vt 0.625000 0.500000
vt 0.625000 0.250000
vt 0.375000 0.500000
vt 0.375000 0.750000
vt 0.625000 0.750000
vt 0.625000 0.500000
vt 0.375000 0.750000
vt 0.375000 1.000000
vt 0.625000 1.000000
vt 0.625000 0.750000
vt 0.125000 0.500000
vt 0.125000 0.750000
vt 0.375000 0.750000
vt 0.375000 0.500000
vt 0.625000 0.500000
vt 0.625000 0.750000
vt 0.875000 0.750000
vt 0.875000 0.500000
vt 1.000000 0.000000
vt 1.000000 0.000000
vt 1.000000 1.000000
vt 0.000000 0.000000
vt 1.000000 1.000000
vt 0.000000 0.000000
vt 0.000000 1.000000
vt 0.000000 1.000000
vt 1.000000 0.000000
vt 1.000000 0.000000
vt 1.000000 1.000000
vt 0.000000 0.000000
vt 1.000000 1.000000
vt 0.000000 0.000000
vt 0.000000 1.000000
vt 0.000000 1.000000
vt 1.000000 0.000000
vt 1.000000 0.000000
vt 1.000000 1.000000
vt 0.000000 0.000000
vt 1.000000 1.000000
vt 0.000000 0.000000
vt 0.000000 1.000000
vt 0.000000 1.000000
vt 0.375000 0.000000
vt 0.375000 0.250000
vt 0.625000 0.250000
vt 0.625000 0.000000
vt 0.375000 0.500000
vt 0.375000 0.750000
vt 0.625000 0.750000
vt 0.625000 0.500000
vt 0.125000 0.500000
vt 0.125000 0.750000
vt 0.375000 0.750000
vt 0.375000 0.500000
vt 0.625000 0.500000
vt 0.625000 0.750000
vt 0.875000 0.750000
vt 0.875000 0.500000
vt 0.375000 0.250000
vt 0.625000 0.250000
vt 0.625000 0.500000
vt 0.375000 0.500000
vt 0.375000 0.750000
vt 0.625000 0.750000
vt 0.625000 1.000000
vt 0.375000 1.000000
vt 0.375000 0.750000
vt 0.625000 0.750000
vt 0.625000 1.000000
vt 0.375000 1.000000
vt 0.375000 0.750000
vt 0.625000 0.750000
vt 0.625000 1.000000
vt 0.375000 1.000000
vt 0.375000 0.250000
vt 0.625000 0.250000
vt 0.625000 0.500000
vt 0.375000 0.500000
vt 0.375000 0.250000
vt 0.625000 0.250000
vt 0.625000 0.500000
vt 0.375000 0.500000
vt 0.375000 0.750000
vt 0.375000 1.000000
vt 0.464844 0.796875
vt 0.625000 0.750000
vt 0.464844 0.951172
vt 0.625000 1.000000
vt 0.490234 0.796875
vt 0.490234 0.951172
vt 0.522949 0.791504
vt 0.522949 0.796875
vt 0.575195 0.791504
vt 0.575195 0.843750
vt 0.522949 0.958496
vt 0.522949 0.843750
vt 0.575195 0.958496
vt 0.522949 0.906250
vt 0.575195 0.906250
vt 0.375000 0.250000
vt 0.375000 0.500000
vt 0.464844 0.299072
vt 0.625000 0.250000
vt 0.464844 0.453125
vt 0.625000 0.500000
vt 0.490234 0.299072
vt 0.490234 0.453125
vt 0.522949 0.291504
vt 0.522949 0.297119
vt 0.575195 0.291504
vt 0.575195 0.343506
vt 0.522949 0.458496
vt 0.522949 0.343506
vt 0.575195 0.458496
vt 0.522949 0.406494
vt 0.575195 0.406494
vt 0.375000 0.250000
vt 0.375000 0.027176
vt 0.625000 0.027176
vt 0.625000 0.250000
vt 0.625000 0.500000
vt 0.625000 0.722656
vt 0.375000 0.722656
vt 0.375000 0.500000
vt 0.375000 0.722656
vt 0.125000 0.722656
vt 0.125000 0.500000
vt 0.375000 0.500000
vt 0.875000 0.722656
vt 0.625000 0.722656
vt 0.625000 0.500000
vt 0.875000 0.500000
vt 0.625000 0.222778
vt 0.375000 0.222778
vt 0.375000 0.000000
vt 0.625000 0.000000
vt 0.375000 0.527344
vt 0.625000 0.527344
vt 0.625000 0.750000
vt 0.375000 0.750000
vt 0.125000 0.527344
vt 0.375000 0.527344
vt 0.375000 0.750000
vt 0.125000 0.750000
vt 0.625000 0.750000
vt 0.625000 0.527344
vt 0.875000 0.527344
vt 0.875000 0.750000
vt 0.625000 0.222778
vt 0.375000 0.222778
vt 0.375000 0.000000
vt 0.625000 0.000000
vt 0.375000 0.527344
vt 0.625000 0.527344
vt 0.625000 0.750000
vt 0.375000 0.750000
vt 0.125000 0.527344
vt 0.375000 0.527344
vt 0.375000 0.750000
vt 0.125000 0.750000
vt 0.625000 0.750000
vt 0.625000 0.527344
vt 0.875000 0.527344
vt 0.875000 0.750000
vt 0.625000 0.222778
vt 0.375000 0.222778
vt 0.375000 0.000000
vt 0.625000 0.000000
vt 0.375000 0.527344
vt 0.625000 0.527344
vt 0.625000 0.750000
vt 0.375000 0.750000
vt 0.152222 0.527344
vt 0.375000 0.527344
vt 0.375000 0.750000
vt 0.125000 0.750000
vt 0.125000 0.527344
vt 0.625000 0.750000
vt 0.625000 0.527344
vt 0.875000 0.527344
vt 0.875000 0.750000
vt 0.375000 0.250000
vt 0.375000 0.027176
vt 0.625000 0.027176
vt 0.625000 0.250000
vt 0.625000 0.500000
vt 0.625000 0.722656
vt 0.375000 0.722656
vt 0.375000 0.500000
vt 0.125000 0.500000
vt 0.375000 0.500000
vt 0.375000 0.722656
vt 0.347900 0.722656
vt 0.125000 0.722656
vt 0.875000 0.722656
vt 0.625000 0.722656
vt 0.625000 0.500000
vt 0.875000 0.500000
vt 0.375000 0.250000
vt 0.375000 0.027176
vt 0.625000 0.027176
vt 0.625000 0.250000
vt 0.625000 0.500000
vt 0.625000 0.722656
vt 0.375000 0.722656
vt 0.375000 0.500000
vt 0.375000 0.722656
vt 0.125000 0.722656
vt 0.125000 0.500000
vt 0.375000 0.500000
vt 0.875000 0.722656
vt 0.625000 0.722656
vt 0.625000 0.500000
vt 0.875000 0.500000
vt 0.132972 0.742028
vt 0.382972 0.992028
vt 0.382972 0.007972
vt 0.132972 0.750000
vt 0.375000 0.992028
vt 0.125000 0.750000
vt 0.375000 1.000000
vt 0.375000 0.000000
vt 0.382972 1.000000
vt 0.382972 0.000000
vt 0.125000 0.742028
vt 0.375000 0.007972
vt 0.617028 0.992028
vt 0.867028 0.742028
vt 0.617028 0.007972
vt 0.867028 0.750000
vt 0.625000 0.992028
vt 0.625000 1.000000
vt 0.875000 0.750000
vt 0.625000 0.000000
vt 0.875000 0.742028
vt 0.625000 0.007972
vt 0.617028 1.000000
vt 0.617028 0.000000
vt 0.132972 0.507972
vt 0.382972 0.242028
vt 0.382972 0.257972
vt 0.125000 0.507972
vt 0.375000 0.242028
vt 0.125000 0.500000
vt 0.375000 0.250000
vt 0.382972 0.250000
vt 0.132972 0.500000
vt 0.375000 0.257972
vt 0.867028 0.507972
vt 0.617028 0.257972
vt 0.617028 0.242028
vt 0.867028 0.500000
vt 0.625000 0.257972
vt 0.875000 0.500000
vt 0.625000 0.250000
vt 0.617028 0.250000
vt 0.875000 0.507972
vt 0.625000 0.242028
vt 0.367028 0.742028
vt 0.382972 0.742028
vt 0.382972 0.757972
vt 0.375000 0.742028
vt 0.375000 0.750000
vt 0.382972 0.750000
vt 0.367028 0.750000
vt 0.375000 0.757972
vt 0.632972 0.742028
vt 0.617028 0.757972
vt 0.617028 0.742028
vt 0.632972 0.750000
vt 0.625000 0.757972
vt 0.625000 0.750000
vt 0.617028 0.750000
vt 0.625000 0.742028
vt 0.367028 0.507972
vt 0.382972 0.492028
vt 0.382972 0.507972
vt 0.367028 0.500000
vt 0.375000 0.492028
vt 0.375000 0.500000
vt 0.382972 0.500000
vt 0.375000 0.507972
vt 0.632972 0.507972
vt 0.617028 0.507972
vt 0.617028 0.492028
vt 0.625000 0.507972
vt 0.625000 0.500000
vt 0.617028 0.500000
vt 0.632972 0.500000
vt 0.625000 0.492028
s 0
usemtl color1
f 75/75/2 74/74/2 73/73/2
f 76/76/2 75/75/2 73/73/2
f 79/79/4 78/78/4 77/77/4
f 80/80/4 79/79/4 77/77/4
f 83/83/5 82/82/5 81/81/5
f 84/84/5 83/83/5 81/81/5
f 87/87/6 86/86/6 85/85/6
f 88/88/6 87/87/6 85/85/6
f 91/91/1 90/90/1 89/89/1
f 92/92/1 91/91/1 89/89/1
f 95/95/3 94/94/3 93/93/3
f 96/96/3 95/95/3 93/93/3
f 99/99/3 98/98/3 97/97/3
f 100/100/3 99/99/3 97/97/3
f 103/103/3 102/102/3 101/101/3
f 104/104/3 103/103/3 101/101/3
f 107/107/1 106/106/1 105/105/1
f 108/108/1 107/107/1 105/105/1
f 111/111/1 110/110/1 109/109/1
f 112/112/1 111/111/1 109/109/1
f 115/115/1 114/114/1 113/113/1
f 113/113/1 116/116/1 115/115/1
f 114/114/1 115/115/1 117/117/1
f 117/117/1 118/118/1 114/114/1
f 116/116/1 119/119/1 115/115/1
f 117/117/1 120/120/1 118/118/1
f 116/116/1 121/121/1 119/119/1
f 119/119/1 121/121/1 122/122/1
f 120/120/1 119/119/1 122/122/1
f 116/116/1 123/123/1 121/121/1
f 124/124/1 123/123/1 116/116/1
f 122/122/1 125/125/1 120/120/1
f 120/120/1 125/125/1 118/118/1
s 1
f 122/122/6 126/126/6 125/125/1
s 0
f 125/125/1 127/127/1 118/118/1
f 116/116/1 118/118/1 127/127/1
s 1
f 126/126/6 128/128/7 125/125/1
s 0
f 128/128/1 126/126/1 124/124/1
f 116/116/1 127/127/1 129/129/1
f 116/116/1 129/129/1 124/124/1
f 124/124/1 129/129/1 128/128/1
f 132/132/3 131/131/3 130/130/3
f 130/130/3 133/133/3 132/132/3
f 131/131/3 132/132/3 134/134/3
f 134/134/3 135/135/3 131/131/3
f 133/133/3 136/136/3 132/132/3
f 134/134/3 137/137/3 135/135/3
f 133/133/3 138/138/3 136/136/3
f 136/136/3 138/138/3 139/139/3
f 137/137/3 136/136/3 139/139/3
f 133/133/3 140/140/3 138/138/3
f 141/141/3 140/140/3 133/133/3
f 139/139/3 142/142/3 137/137/3
f 137/137/3 142/142/3 135/135/3
s 1
f 139/139/6 143/143/6 142/142/3
s 0
f 142/142/3 144/144/3 135/135/3
f 133/133/3 135/135/3 144/144/3
s 1
f 143/143/6 145/145/5 142/142/3
s 0
f 145/145/3 143/143/3 141/141/3
f 133/133/3 144/144/3 146/146/3
f 133/133/3 146/146/3 141/141/3
f 141/141/3 146/146/3 145/145/3
usemtl color2
f 27/27/2 26/26/2 25/25/2
f 28/28/2 27/27/2 25/25/2
f 31/31/3 30/30/3 29/29/3
f 32/32/3 31/31/3 29/29/3
f 35/35/4 34/34/4 33/33/4
f 36/36/4 35/35/4 33/33/4
f 39/39/1 38/38/1 37/37/1
f 40/40/1 39/39/1 37/37/1
f 43/43/5 42/42/5 41/41/5
f 44/44/5 43/43/5 41/41/5
f 47/47/6 46/46/6 45/45/6
f 48/48/6 47/47/6 45/45/6
f 149/149/4 148/148/4 147/147/4
f 150/150/4 149/149/4 147/147/4
f 153/153/2 152/152/2 151/151/2
f 154/154/2 153/153/2 151/151/2
f 157/157/6 156/156/6 155/155/6
f 158/158/6 157/157/6 155/155/6
f 161/161/5 160/160/5 159/159/5
f 162/162/5 161/161/5 159/159/5
f 165/165/4 164/164/4 163/163/4
f 166/166/4 165/165/4 163/163/4
f 169/169/2 168/168/2 167/167/2
f 170/170/2 169/169/2 167/167/2
f 173/173/6 172/172/6 171/171/6
f 174/174/6 173/173/6 171/171/6
f 177/177/5 176/176/5 175/175/5
f 178/178/5 177/177/5 175/175/5
f 181/181/4 180/180/4 179/179/4
f 182/182/4 181/181/4 179/179/4
f 185/185/2 184/184/2 183/183/2
f 186/186/2 185/185/2 183/183/2
f 189/189/6 188/188/6 187/187/6
f 190/190/6 189/189/6 187/187/6
f 193/193/5 192/192/5 191/191/5
f 194/194/5 193/193/5 191/191/5
f 197/197/4 196/196/4 195/195/4
f 198/198/4 197/197/4 195/195/4
f 201/201/2 200/200/2 199/199/2
f 202/202/2 201/201/2 199/199/2
f 205/205/6 204/204/6 203/203/6
f 203/203/6 206/206/6 205/205/6
f 203/203/6 207/207/6 206/206/6
f 210/210/5 209/209/5 208/208/5
f 211/211/5 210/210/5 208/208/5
f 214/214/4 213/213/4 212/212/4
f 215/215/4 214/214/4 212/212/4
f 218/218/2 217/217/2 216/216/2
f 219/219/2 218/218/2 216/216/2
f 222/222/6 221/221/6 220/220/6
f 220/220/6 223/223/6 222/222/6
f 220/220/6 224/224/6 223/223/6
f 227/227/5 226/226/5 225/225/5
f 228/228/5 227/227/5 225/225/5
f 231/231/4 230/230/4 229/229/4
f 232/232/4 231/231/4 229/229/4
f 235/235/2 234/234/2 233/233/2
f 236/236/2 235/235/2 233/233/2
f 239/239/6 238/238/6 237/237/6
f 240/240/6 239/239/6 237/237/6
f 243/243/5 242/242/5 241/241/5
f 244/244/5 243/243/5 241/241/5
usemtl blacks
f 3/3/1 2/2/1 1/1/1
f 1/1/1 2/2/1 4/4/1
f 5/5/1 3/3/1 1/1/1
f 2/2/1 6/6/1 4/4/1
f 7/7/1 3/3/1 5/5/1
f 4/4/1 6/6/1 8/8/1
f 8/8/1 7/7/1 5/5/1
f 6/6/1 7/7/1 8/8/1
f 11/11/1 10/10/1 9/9/1
f 9/9/1 10/10/1 12/12/1
f 13/13/1 11/11/1 9/9/1
f 10/10/1 14/14/1 12/12/1
f 15/15/1 11/11/1 13/13/1
f 12/12/1 14/14/1 16/16/1
f 16/16/1 15/15/1 13/13/1
f 14/14/1 15/15/1 16/16/1
f 19/19/1 18/18/1 17/17/1
f 17/17/1 18/18/1 20/20/1
f 21/21/1 19/19/1 17/17/1
f 18/18/1 22/22/1 20/20/1
f 23/23/1 19/19/1 21/21/1
f 20/20/1 22/22/1 24/24/1
f 24/24/1 23/23/1 21/21/1
f 22/22/1 23/23/1 24/24/1
f 51/51/3 50/50/3 49/49/3
f 49/49/3 50/50/3 52/52/3
f 53/53/3 51/51/3 49/49/3
f 50/50/3 54/54/3 52/52/3
f 55/55/3 51/51/3 53/53/3
f 52/52/3 54/54/3 56/56/3
f 56/56/3 55/55/3 53/53/3
f 54/54/3 55/55/3 56/56/3
f 59/59/3 58/58/3 57/57/3
f 57/57/3 58/58/3 60/60/3
f 61/61/3 59/59/3 57/57/3
f 58/58/3 62/62/3 60/60/3
f 63/63/3 59/59/3 61/61/3
f 60/60/3 62/62/3 64/64/3
f 64/64/3 63/63/3 61/61/3
f 62/62/3 63/63/3 64/64/3
f 67/67/3 66/66/3 65/65/3
f 65/65/3 66/66/3 68/68/3
f 69/69/3 67/67/3 65/65/3
f 66/66/3 70/70/3 68/68/3
f 71/71/3 67/67/3 69/69/3
f 68/68/3 70/70/3 72/72/3
f 72/72/3 71/71/3 69/69/3
f 70/70/3 71/71/3 72/72/3
f 245/245/5 248/248/5 249/250/5 251/255/5
f 246/246/3 250/253/3 249/251/3 248/249/3
f 247/247/4 251/256/4 249/252/4 250/254/4
f 252/257/3 255/261/3 256/262/3 258/267/3
f 253/258/6 257/265/6 256/263/6 255/260/6
f 254/259/4 258/268/4 256/264/4 257/266/4
f 259/269/5 262/272/5 263/274/5 265/277/5
f 260/270/4 264/276/4 263/275/4 262/273/4
f 261/271/1 265/278/1 263/275/1 264/276/1
f 266/279/6 269/282/6 270/284/6 272/287/6
f 267/280/1 271/286/1 270/285/1 269/283/1
f 268/281/4 272/288/4 270/285/4 271/286/4
f 273/289/5 276/292/5 277/293/5 279/295/5
f 274/290/2 278/294/2 277/293/2 276/292/2
f 275/291/3 279/296/3 277/293/3 278/294/3
f 280/297/6 283/300/6 284/302/6 286/304/6
f 281/298/3 285/303/3 284/302/3 283/301/3
f 282/299/2 286/304/2 284/302/2 285/303/2
f 287/305/5 290/308/5 291/310/5 293/312/5
f 288/306/1 292/311/1 291/310/1 290/309/1
f 289/307/2 293/312/2 291/310/2 292/311/2
f 294/313/6 297/316/6 298/317/6 300/319/6
f 295/314/2 299/318/2 298/317/2 297/316/2
f 296/315/1 300/320/1 298/317/1 299/318/1
f 259/269/5 245/245/5 251/255/5 262/272/5
f 262/273/4 251/256/4 247/247/4 260/270/4
f 246/246/3 252/257/3 258/267/3 250/253/3
f 250/254/4 258/268/4 254/259/4 247/247/4
f 253/258/6 266/279/6 272/287/6 257/265/6
f 257/266/4 272/288/4 268/281/4 254/259/4
f 267/280/1 261/271/1 264/276/1 271/286/1
f 271/286/4 264/276/4 260/270/4 268/281/4
f 287/305/5 259/269/5 265/277/5 290/308/5
f 290/309/1 265/278/1 261/271/1 288/306/1
f 266/279/6 294/313/6 300/319/6 269/282/6
f 269/283/1 300/320/1 296/315/1 267/280/1
f 295/314/2 289/307/2 292/311/2 299/318/2
f 299/318/1 292/311/1 288/306/1 296/315/1
f 273/289/5 287/305/5 293/312/5 276/292/5
f 276/292/2 293/312/2 289/307/2 274/290/2
f 294/313/6 280/297/6 286/304/6 297/316/6
f 297/316/2 286/304/2 282/299/2 295/314/2
f 281/298/3 275/291/3 278/294/3 285/303/3
f 285/303/2 278/294/2 274/290/2 282/299/2
f 245/245/5 273/289/5 279/295/5 248/248/5
f 248/249/3 279/296/3 275/291/3 246/246/3
f 280/297/6 253/258/6 255/260/6 283/300/6
f 283/301/3 255/261/3 252/257/3 281/298/3
